<?xml version="1.0" standalone="no"?>
<!DOCTYPE svg PUBLIC "-//W3C//DTD SVG 20010904//EN" "http://www.w3.org/TR/2001/REC-SVG-20010904/DTD/svg10.dtd">
<svg version="1.0" xmlns="http://www.w3.org/2000/svg" width="4790.000000pt" height="3837.000000pt"
        viewBox="0 0 4790.000000 3837.000000" preserveAspectRatio="xMidYMid meet">

        <g transform="translate(0.000000,3837.000000) scale(0.100000,-0.100000)" fill="#fff" stroke="none">
                <path d="M23465 35613 c-2985 -87 -5848 -955 -8364 -2536 -1703 -1069 -3226
-2470 -4442 -4082 -179 -238 -528 -730 -583 -822 -6 -10 77 -13 402 -13 l409
0 69 98 c224 316 596 791 878 1119 2788 3246 6725 5230 10971 5527 434 31 743
39 1309 33 663 -6 1027 -27 1616 -93 1403 -155 2809 -508 4124 -1033 2783
-1113 5213 -3005 6983 -5438 l155 -213 409 0 410 0 -98 143 c-806 1180 -1698
2197 -2743 3126 -2679 2383 -6053 3832 -9620 4130 -611 52 -1303 71 -1885 54z" />
                <path d="M7720 32833 c-504 -22 -1042 -164 -1504 -395 -557 -279 -887 -670
-998 -1181 -18 -85 -22 -138 -24 -322 l-2 -219 -1609 -626 c-885 -344 -1629
-637 -1654 -652 -65 -38 -146 -128 -179 -200 -83 -179 -51 -383 82 -524 108
-114 262 -168 410 -144 42 6 595 216 1673 636 1559 606 1610 625 1625 606 8
-10 44 -56 79 -101 255 -326 631 -517 1057 -538 364 -18 820 106 1349 367 556
274 986 595 1267 944 111 137 168 227 244 381 206 420 226 807 59 1152 -225
464 -811 766 -1580 813 -82 5 -168 9 -190 8 -22 -1 -69 -3 -105 -5z m150 -318
c440 -54 762 -156 1013 -321 332 -217 460 -518 381 -898 -76 -371 -395 -902
-773 -1290 -158 -161 -280 -264 -446 -375 -274 -183 -539 -292 -835 -342 -109
-18 -346 -16 -453 5 -379 73 -673 299 -923 706 l-61 100 13 52 c27 102 13 221
-36 323 -29 59 -107 145 -169 184 -27 18 -52 42 -55 54 -73 260 -86 563 -32
769 85 332 325 613 674 791 289 148 568 223 972 261 101 9 610 -4 730 -19z" />
                <path d="M23415 32693 c-168 -6 -598 -35 -795 -54 -2643 -252 -5148 -1267
-7226 -2926 -187 -149 -379 -312 -604 -512 -178 -158 -836 -809 -969 -958
l-73 -83 89 0 89 0 184 196 c207 220 530 532 798 771 1130 1010 2430 1827
3833 2411 1140 475 2365 793 3624 942 802 94 1735 114 2560 54 2531 -184 4933
-1061 6985 -2552 617 -449 1069 -838 1667 -1439 l383 -383 81 0 c44 0 79 4 77
9 -7 21 -363 393 -575 601 -1030 1014 -2163 1825 -3453 2474 -1749 880 -3578
1355 -5565 1446 -194 9 -893 11 -1110 3z" />
                <path d="M4280 23800 l0 -3220 230 0 230 0 0 1610 0 1610 1610 0 1610 0 0
-1610 0 -1610 230 0 230 0 0 3220 0 3220 -230 0 -230 0 0 -1410 0 -1410 -1610
0 -1610 0 0 1410 0 1410 -230 0 -230 0 0 -3220z" />
                <path d="M10520 23800 l0 -3220 1955 0 1955 0 0 195 0 195 -1730 0 -1730 0 0
1415 0 1415 1415 0 1415 0 0 200 0 200 -1415 0 -1415 0 2 1213 3 1212 1678 3
1677 2 0 195 0 195 -1905 0 -1905 0 0 -3220z" />
                <path d="M17847 27008 c-15 -41 -2251 -6396 -2255 -6410 -4 -17 12 -18 226
-18 l230 0 21 63 c12 34 182 529 378 1100 l356 1037 1271 0 1271 0 371 -1098
372 -1097 244 -3 245 -2 -1133 3217 -1132 3218 -230 3 c-178 2 -231 0 -235
-10z m282 -535 c140 -490 311 -1019 755 -2331 179 -530 326 -965 326 -968 0
-2 -511 -4 -1135 -4 -624 0 -1135 2 -1135 4 0 2 125 370 279 818 449 1311 619
1835 837 2581 3 9 13 17 22 17 13 0 25 -27 51 -117z" />
                <path d="M22470 23800 l0 -3220 1905 0 1905 0 0 195 0 195 -1685 0 -1685 0 0
3025 0 3025 -220 0 -220 0 0 -3220z" />
                <path d="M27330 26825 l0 -195 1120 0 1120 0 0 -3025 0 -3025 230 0 230 0 0
3025 0 3025 1120 0 1120 0 0 195 0 195 -2470 0 -2470 0 0 -195z" />
                <path d="M33590 23800 l0 -3220 230 0 230 0 0 1610 0 1610 1610 0 1610 0 0
-1610 0 -1610 230 0 230 0 0 3220 0 3220 -230 0 -230 0 0 -1410 0 -1410 -1610
0 -1610 0 0 1410 0 1410 -230 0 -230 0 0 -3220z" />
                <path d="M39093 27008 c2 -7 498 -924 1101 -2037 l1096 -2023 0 -1184 0 -1184
230 0 230 0 0 1182 0 1183 1095 2020 c602 1112 1097 2029 1101 2038 6 16 -10
17 -217 15 l-223 -3 -571 -1090 c-631 -1208 -612 -1171 -878 -1655 -346 -629
-498 -890 -517 -890 -20 0 -123 184 -451 800 -95 179 -234 435 -308 570 -75
135 -382 701 -681 1258 l-545 1012 -233 0 c-183 0 -233 -3 -229 -12z" />
                <path d="M7326 19454 c-10 -25 -7 -776 4 -1064 113 -2932 958 -5699 2495
-8170 1867 -3001 4668 -5346 7955 -6660 2388 -954 4965 -1336 7565 -1120 3093
258 6050 1381 8540 3245 640 479 1205 968 1794 1552 117 117 215 213 217 213
2 0 857 -887 1899 -1970 1043 -1084 1900 -1970 1904 -1970 11 0 371 367 371
378 0 6 -906 841 -2013 1857 -1106 1015 -2013 1850 -2015 1854 -4 11 239 272
249 269 5 -2 861 -889 1904 -1973 1042 -1083 1901 -1971 1908 -1973 21 -4 369
354 365 376 -2 10 -910 850 -2018 1867 -1108 1016 -2018 1850 -2022 1854 -4 3
58 83 138 176 2241 2613 3619 5878 3923 9295 56 624 85 1455 64 1853 l-6 127
-334 0 -333 0 0 -437 c0 -481 -10 -773 -40 -1198 -235 -3265 -1468 -6367
-3544 -8910 -199 -244 -366 -437 -376 -433 -5 2 -102 89 -216 193 -114 105
-229 210 -256 233 l-48 44 0 -82 0 -81 209 -217 209 -217 -68 -75 c-37 -41
-101 -110 -141 -153 l-74 -78 -158 145 -159 146 -91 0 -91 0 40 -43 c22 -23
108 -113 192 -199 84 -87 152 -162 152 -166 0 -14 -526 -530 -715 -702 -2408
-2191 -5323 -3571 -8505 -4025 -729 -104 -1287 -144 -2086 -152 -1061 -10
-1860 51 -2859 218 -3315 557 -6423 2197 -8772 4630 -1157 1198 -2082 2507
-2822 3989 -1046 2097 -1594 4311 -1661 6705 -6 204 -8 481 -4 618 l7 247
-335 0 c-297 0 -337 -2 -342 -16z" />
                <path d="M10240 19028 c0 -453 8 -707 35 -1068 164 -2185 843 -4274 2003
-6160 92 -150 402 -620 442 -670 l20 -25 0 114 0 115 -148 225 c-338 513 -577
932 -853 1495 -920 1879 -1386 3942 -1367 6049 l3 367 -67 0 -68 0 0 -442z" />
                <path d="M37507 19183 c5 -280 -7 -770 -28 -1078 -148 -2208 -808 -4292 -1956
-6173 l-124 -202 3 -118 3 -117 96 150 c452 704 879 1541 1194 2344 522 1329
826 2704 920 4171 18 274 32 1113 21 1233 l-8 77 -64 0 -63 0 6 -287z" />
                <path d="M13160 12081 l0 -3221 853 0 c979 0 1103 7 1427 76 1369 293 2120
1414 2120 3164 0 1322 -428 2275 -1250 2785 -266 164 -617 294 -960 355 -299
52 -306 53 -1277 57 l-913 4 0 -3220z m1740 2819 c534 -49 977 -213 1314 -489
93 -76 256 -246 329 -343 279 -372 451 -867 519 -1493 20 -188 17 -811 -5
-1000 -25 -209 -51 -357 -92 -522 -256 -1031 -899 -1630 -1908 -1778 -167 -24
-458 -35 -969 -35 l-468 0 0 2835 0 2835 583 0 c322 0 633 -5 697 -10z" />
                <path d="M19130 15105 l0 -195 825 0 825 0 0 -2830 0 -2830 -825 0 -825 0 0
-195 0 -195 1880 0 1880 0 0 195 0 195 -825 0 -825 0 0 2830 0 2830 825 0 825
0 0 195 0 195 -1880 0 -1880 0 0 -195z" />
                <path d="M25180 12080 l0 -3220 1955 0 1955 0 0 195 0 195 -1730 0 -1730 0 0
1415 0 1415 1415 0 1415 0 0 200 0 200 -1415 0 -1415 0 2 1213 3 1212 1678 3
1677 2 0 195 0 195 -1905 0 -1905 0 0 -3220z" />
                <path d="M30260 15105 l0 -195 1120 0 1120 0 0 -3025 0 -3025 230 0 230 0 0
3025 0 3025 1120 0 1120 0 0 195 0 195 -2470 0 -2470 0 0 -195z" />
                <path d="M15349 8322 c2103 -1687 4614 -2709 7276 -2962 492 -46 675 -54 1300
-54 693 -1 969 13 1565 80 2529 282 4978 1293 6960 2875 l105 84 -103 3 -103
3 -147 -114 c-1454 -1120 -3133 -1937 -4907 -2387 -844 -214 -1623 -336 -2545
-397 -317 -21 -1243 -24 -1540 -5 -985 63 -1742 179 -2625 402 -1721 435
-3339 1209 -4780 2288 -99 74 -201 152 -226 174 l-47 38 -108 0 -109 0 34 -28z" />
        </g>
</svg>